<svg xmlns="http://www.w3.org/2000/svg" viewBox="0 0 24 24" id="Internet-Network-Cloud-Error--Streamline-Pixel" height="24" width="24">
  <g>
    <path d="M22.8525 12.00375H24v4.5675h-1.1475Z" fill="#b91c1c" stroke-width="0.75"></path>
    <path d="M21.7125 16.57125h1.1400000000000001v1.1475h-1.1400000000000001Z" fill="#b91c1c" stroke-width="0.75"></path>
    <path d="M21.7125 10.85625h1.1400000000000001v1.1475h-1.1400000000000001Z" fill="#b91c1c" stroke-width="0.75"></path>
    <path d="M20.572499999999998 17.71875h1.1400000000000001v1.1400000000000001h-1.1400000000000001Z" fill="#b91c1c" stroke-width="0.75"></path>
    <path d="M20.572499999999998 9.71625h1.1400000000000001v1.1400000000000001h-1.1400000000000001Z" fill="#b91c1c" stroke-width="0.75"></path>
    <path d="M2.2874999999999996 18.85875h18.285v1.1400000000000001H2.2874999999999996Z" fill="#b91c1c" stroke-width="0.75"></path>
    <path d="M18.285 8.57625h2.2874999999999996v1.1400000000000001h-2.2874999999999996Z" fill="#b91c1c" stroke-width="0.75"></path>
    <path d="M17.137500000000003 7.428749999999999h1.1475v1.1475h-1.1475Z" fill="#b91c1c" stroke-width="0.75"></path>
    <path d="M15.997499999999999 13.143749999999999h1.1400000000000001v1.1400000000000001h-1.1400000000000001Z" fill="#b91c1c" stroke-width="0.75"></path>
    <path d="M15.997499999999999 10.85625h1.1400000000000001v1.1475h-1.1400000000000001Z" fill="#b91c1c" stroke-width="0.75"></path>
    <path d="M15.997499999999999 6.28875h1.1400000000000001v1.1400000000000001h-1.1400000000000001Z" fill="#b91c1c" stroke-width="0.75"></path>
    <path d="M14.857499999999998 12.00375h1.1400000000000001v1.1400000000000001h-1.1400000000000001Z" fill="#b91c1c" stroke-width="0.75"></path>
    <path d="M13.71 13.143749999999999h1.1475v1.1400000000000001h-1.1475Z" fill="#b91c1c" stroke-width="0.75"></path>
    <path d="M13.71 10.85625h1.1475v1.1475h-1.1475Z" fill="#b91c1c" stroke-width="0.75"></path>
    <path d="M13.71 5.14125h2.2874999999999996v1.1475h-2.2874999999999996Z" fill="#b91c1c" stroke-width="0.75"></path>
    <path d="m10.2825 16.57125 2.2874999999999996 0 0 1.1475 2.2874999999999996 0 0 -2.2874999999999996 -4.574999999999999 0 0 1.1400000000000001z" fill="#b91c1c" stroke-width="0.75"></path>
    <path d="M10.2825 4.00125h3.4275v1.1400000000000001h-3.4275Z" fill="#b91c1c" stroke-width="0.75"></path>
    <path d="M9.1425 13.143749999999999h1.1400000000000001v1.1400000000000001h-1.1400000000000001Z" fill="#b91c1c" stroke-width="0.75"></path>
    <path d="M9.1425 10.85625h1.1400000000000001v1.1475h-1.1400000000000001Z" fill="#b91c1c" stroke-width="0.75"></path>
    <path d="M7.995 5.14125h2.2874999999999996v1.1475h-2.2874999999999996Z" fill="#b91c1c" stroke-width="0.75"></path>
    <path d="M7.995 12.00375h1.1475v1.1400000000000001h-1.1475Z" fill="#b91c1c" stroke-width="0.75"></path>
    <path d="M6.855 13.143749999999999h1.1400000000000001v1.1400000000000001H6.855Z" fill="#b91c1c" stroke-width="0.75"></path>
    <path d="M6.855 10.85625h1.1400000000000001v1.1475H6.855Z" fill="#b91c1c" stroke-width="0.75"></path>
    <path d="M6.855 6.28875h1.1400000000000001v1.1400000000000001H6.855Z" fill="#b91c1c" stroke-width="0.75"></path>
    <path d="M5.715 7.428749999999999h1.1400000000000001v2.2874999999999996H5.715Z" fill="#b91c1c" stroke-width="0.75"></path>
    <path d="M2.2874999999999996 9.71625h3.4275v1.1400000000000001H2.2874999999999996Z" fill="#b91c1c" stroke-width="0.75"></path>
    <path d="M1.1400000000000001 17.71875h1.1475v1.1400000000000001H1.1400000000000001Z" fill="#b91c1c" stroke-width="0.75"></path>
    <path d="M1.1400000000000001 10.85625h1.1475v1.1475H1.1400000000000001Z" fill="#b91c1c" stroke-width="0.75"></path>
    <path d="M0 12.00375h1.1400000000000001v5.715H0Z" fill="#b91c1c" stroke-width="0.75"></path>
  </g>
</svg>